<?xml version="1.0" standalone="no"?>
<!DOCTYPE svg PUBLIC "-//W3C//DTD SVG 20010904//EN"
 "http://www.w3.org/TR/2001/REC-SVG-20010904/DTD/svg10.dtd">
<svg version="1.0" xmlns="http://www.w3.org/2000/svg"
 width="600.000000pt" height="400.000000pt" viewBox="0 0 600.000000 400.000000"
 preserveAspectRatio="xMidYMid meet">

<g transform="translate(0.000000,400.000000) scale(0.100000,-0.100000)"
fill="#000000" stroke="none">
<path d="M1139 3037 c-108 -31 -180 -97 -216 -200 -17 -48 -18 -99 -18 -653
l0 -600 30 -59 c38 -75 105 -127 190 -150 47 -13 93 -16 197 -14 132 4 137 5
204 39 122 62 162 149 171 373 l6 137 -117 0 -116 0 0 -116 c0 -180 -30 -218
-171 -217 -74 0 -113 15 -143 56 -20 27 -21 44 -24 253 l-3 224 285 0 286 0 0
283 c-1 310 -9 402 -41 477 -27 62 -101 132 -167 155 -62 23 -287 30 -353 12z
m268 -227 c55 -33 58 -46 58 -270 l0 -205 -162 -3 -163 -2 0 204 c0 113 4 216
10 230 17 45 65 66 150 66 57 0 83 -5 107 -20z"/>
<path d="M2305 3045 c-5 -2 -29 -9 -52 -15 -24 -6 -72 -31 -108 -55 l-65 -45
0 50 0 50 -115 0 -115 0 0 -1045 0 -1045 115 0 115 0 0 265 c0 146 3 265 6
265 3 0 22 -13 42 -30 60 -48 129 -73 213 -78 184 -11 291 75 319 257 8 46 10
260 8 633 -3 557 -4 564 -26 619 -27 68 -80 125 -140 151 -40 18 -173 34 -197
23z m60 -229 c72 -30 70 -13 73 -566 2 -272 0 -519 -3 -548 -5 -39 -15 -62
-35 -85 -27 -31 -31 -32 -107 -32 -71 0 -84 3 -143 36 l-65 36 0 543 0 544 42
29 c72 51 174 69 238 43z"/>
<path d="M3057 3040 c-59 -15 -132 -56 -161 -91 -68 -80 -86 -156 -86 -355 l0
-145 113 3 112 3 5 158 5 159 32 28 c61 55 192 53 249 -4 39 -39 47 -85 42
-265 l-3 -124 -181 -63 c-220 -76 -248 -90 -301 -147 -64 -69 -73 -114 -73
-351 0 -326 22 -400 140 -462 27 -15 57 -19 135 -19 88 0 107 3 158 27 32 15
73 40 90 54 l32 27 3 -46 3 -47 120 0 120 0 -3 698 c-3 625 -5 702 -21 748
-34 101 -106 177 -196 205 -46 15 -284 21 -334 9z m313 -1114 l0 -273 -57 -31
c-85 -44 -175 -58 -222 -32 -44 23 -51 58 -51 240 0 190 7 223 58 259 25 18
239 107 265 110 4 1 7 -122 7 -273z"/>
<path d="M4205 3045 c-5 -2 -29 -9 -52 -15 -24 -6 -72 -31 -108 -55 l-65 -45
0 50 0 50 -115 0 -115 0 0 -825 0 -825 115 0 115 0 2 687 3 687 70 35 c58 29
81 36 132 36 55 0 66 -3 90 -28 l28 -27 3 -695 2 -695 115 0 115 0 2 688 3
687 69 35 c57 28 81 35 133 35 75 0 101 -19 114 -86 4 -24 8 -341 8 -704 l0
-660 113 0 113 0 0 740 c0 734 0 740 -21 785 -29 61 -65 97 -120 122 -121 53
-287 21 -407 -79 -16 -12 -32 -23 -35 -23 -4 0 -17 15 -29 34 -32 49 -116 88
-201 92 -37 2 -71 2 -77 -1z"/>
</g>
</svg>
